<svg version="1.0" xmlns="http://www.w3.org/2000/svg"
 width="411.000000pt" height="432.000000pt" viewBox="0 0 411.000000 432.000000"
 preserveAspectRatio="xMidYMid meet">

<g transform="translate(0.000000,432.000000) scale(0.100000,-0.100000)"
fill="#000000" stroke="none">
<path d="M1970 4263 c-2 -243 1 -4177 3 -4179 1 -1 50 -4 110 -7 l107 -5 0
2099 0 2099 -110 0 c-60 0 -110 -3 -110 -7z"/>
<path d="M1535 4206 c-312 -81 -663 -286 -910 -531 -106 -105 -235 -276 -309
-410 -9 -16 -21 -37 -26 -45 -12 -19 -83 -175 -98 -215 -43 -117 -117 -428
-107 -446 4 -5 57 -9 118 -9 l112 0 18 98 c81 443 373 867 775 1127 134 86
364 186 520 225 l42 11 0 109 c0 129 9 123 -135 86z"/>
<path d="M2434 4208 c3 -13 6 -66 6 -119 l0 -96 48 -6 c138 -16 393 -128 586
-257 169 -113 371 -318 479 -485 110 -173 213 -435 239 -609 l12 -86 118 0
118 0 -6 43 c-23 168 -73 338 -148 506 -99 220 -212 384 -392 566 -271 274
-614 470 -954 546 -110 24 -114 24 -106 -3z"/>
<path d="M1380 3590 c-188 -24 -399 -158 -507 -323 -101 -152 -123 -283 -123
-714 l0 -263 -352 -2 -353 -3 -3 -112 -3 -113 356 0 355 0 2 -67 c0 -38 2
-217 3 -399 l2 -331 39 -73 c23 -44 67 -103 110 -149 l73 -76 1 942 c0 1044 0
1037 65 1169 49 101 105 160 189 200 39 19 78 34 88 34 17 0 18 -61 18 -1295
l0 -1296 108 3 107 3 3 1438 2 1437 -62 -1 c-35 -1 -88 -5 -118 -9z"/>
<path d="M2427 3583 c-4 -3 -7 -54 -7 -113 l0 -107 159 -6 c238 -10 349 -54
475 -187 104 -111 156 -236 156 -375 0 -84 -11 -128 -57 -220 -55 -113 -136
-182 -263 -226 -56 -19 -93 -22 -265 -27 l-200 -5 0 -156 0 -156 180 0 c143
-1 192 -5 240 -19 200 -60 348 -216 376 -400 41 -260 -148 -537 -421 -621 -37
-11 -109 -18 -217 -22 l-163 -6 0 -110 0 -110 178 6 c133 4 197 11 256 26 224
59 410 208 515 411 61 118 82 198 88 335 5 103 2 132 -16 200 -56 205 -174
348 -358 436 l-64 31 58 27 c179 86 291 229 344 441 28 110 23 289 -11 390
-102 302 -362 514 -684 559 -85 12 -289 15 -299 4z"/>
<path d="M3540 2170 l0 -110 275 0 275 0 0 110 0 110 -275 0 -275 0 0 -110z"/>
<path d="M80 1792 c0 -39 37 -207 65 -299 78 -249 177 -441 332 -640 246 -317
551 -538 923 -667 88 -31 245 -76 264 -76 4 0 5 52 4 116 l-3 116 -90 23
c-117 30 -302 109 -421 180 -449 268 -740 690 -832 1205 l-8 45 -117 3 c-65 1
-117 -1 -117 -6z"/>
<path d="M3800 1770 c0 -16 -9 -73 -19 -127 -67 -342 -271 -687 -543 -919
-201 -172 -429 -290 -682 -354 l-111 -28 -3 -111 c-3 -128 -12 -119 106 -95
238 48 512 177 752 353 113 83 294 270 387 401 96 135 198 326 248 463 41 114
92 309 101 390 l7 57 -122 0 -121 0 0 -30z"/>
</g>
</svg>
